# xmcd
#
# Track frame offsets:
#	150
#	15427
#	29057
#	44637
#	59785
#	75692
#	88257
#	104530
#	117922
#	134915
#
# Disc length: 2022 seconds
#
# Revision: 4
# Processed by: cddbd v1.5.2PL0 Copyright (c) Steve Scherf et al.
# Submitted via: EZCDAudioConverter 6.0.7.1
#
DISCID=9607e40a
DTITLE=Eddy Raven - Right For The Flight
DYEAR=1991
DGENRE=Country
TTITLE0=Rock Me In The Rhythm Of Your Love
TTITLE1=Torn Up
TTITLE2=Hot Pink
TTITLE3=I Know That Car
TTITLE4=Ain't Nothin' But A Heartache
TTITLE5=Leon And Maggie
TTITLE6=Like A Hurricane
TTITLE7=Too Much Candy For A Dime
TTITLE8=Somebody's Tearin' The Flag
TTITLE9=Cajun Song
EXTD=
EXTT0=
EXTT1=
EXTT2=
EXTT3=
EXTT4=
EXTT5=
EXTT6=
EXTT7=
EXTT8=
EXTT9=
PLAYORDER=
